<svg xmlns="http://www.w3.org/2000/svg" width="24.062" height="24.063" viewBox="0 0 24.062 24.063">
  <path id="instagram-glyph-1" d="M8.022,12.031a4.01,4.01,0,1,1,4.01,4.011,4.01,4.01,0,0,1-4.01-4.011m-2.168,0a6.178,6.178,0,1,0,6.178-6.178,6.178,6.178,0,0,0-6.178,6.178M17.01,5.608a1.444,1.444,0,1,0,1.444-1.443A1.444,1.444,0,0,0,17.01,5.608M7.17,21.825a6.646,6.646,0,0,1-2.234-.414,3.742,3.742,0,0,1-1.384-.9,3.719,3.719,0,0,1-.9-1.383,6.646,6.646,0,0,1-.414-2.234c-.058-1.268-.07-1.649-.07-4.862s.013-3.593.07-4.862a6.677,6.677,0,0,1,.414-2.234,3.742,3.742,0,0,1,.9-1.384,3.715,3.715,0,0,1,1.384-.9A6.646,6.646,0,0,1,7.17,2.237c1.268-.058,1.649-.07,4.861-.07s3.593.013,4.862.07a6.677,6.677,0,0,1,2.234.414,3.73,3.73,0,0,1,1.384.9,3.734,3.734,0,0,1,.9,1.384,6.646,6.646,0,0,1,.414,2.234c.058,1.269.07,1.649.07,4.862s-.012,3.593-.07,4.862a6.671,6.671,0,0,1-.414,2.234,3.983,3.983,0,0,1-2.284,2.283,6.646,6.646,0,0,1-2.234.414c-1.268.058-1.649.07-4.862.07s-3.593-.012-4.861-.07M7.071.073a8.825,8.825,0,0,0-2.92.559A5.9,5.9,0,0,0,2.019,2.019,5.887,5.887,0,0,0,.632,4.151a8.825,8.825,0,0,0-.559,2.92C.014,8.354,0,8.764,0,12.031s.014,3.677.073,4.96a8.825,8.825,0,0,0,.559,2.92,5.883,5.883,0,0,0,1.388,2.131,5.9,5.9,0,0,0,2.131,1.388,8.83,8.83,0,0,0,2.92.559c1.284.058,1.693.073,4.96.073s3.677-.014,4.96-.073a8.825,8.825,0,0,0,2.92-.559,6.152,6.152,0,0,0,3.519-3.519,8.8,8.8,0,0,0,.559-2.92c.058-1.284.072-1.693.072-4.96s-.014-3.677-.072-4.96a8.825,8.825,0,0,0-.559-2.92,5.917,5.917,0,0,0-1.388-2.131A5.9,5.9,0,0,0,19.913.632a8.811,8.811,0,0,0-2.92-.559C15.71.015,15.3,0,12.032,0S8.355.014,7.071.073" fill="#464646"/>
</svg>
