<svg id="linkedin-icon-2" xmlns="http://www.w3.org/2000/svg" width="25.174" height="24.063" viewBox="0 0 25.174 24.063">
  <path id="Path_23389" data-name="Path 23389" d="M42.945,67.49V51.254h-5.4V67.49h5.4Zm-2.7-18.452a2.814,2.814,0,1,0,.036-5.61,2.813,2.813,0,1,0-.071,5.61h.035ZM45.932,67.49h5.4V58.424a3.7,3.7,0,0,1,.178-1.317,2.953,2.953,0,0,1,2.769-1.974c1.952,0,2.734,1.489,2.734,3.671V67.49h5.4V58.181c0-4.987-2.662-7.307-6.212-7.307a5.376,5.376,0,0,0-4.9,2.735h.036V51.255h-5.4c.07,1.523,0,16.236,0,16.236Z" transform="translate(-37.23 -43.428)" fill="#464646"/>
</svg>
