<svg xmlns="http://www.w3.org/2000/svg" width="29.597" height="24.063" viewBox="0 0 29.597 24.063">
  <path id="twitter-6" d="M9.308,24.063c11.169,0,17.277-9.257,17.277-17.284q0-.394-.017-.785A12.35,12.35,0,0,0,29.6,2.848,12.1,12.1,0,0,1,26.11,3.8,6.1,6.1,0,0,0,28.78.445a12.177,12.177,0,0,1-3.856,1.474,6.078,6.078,0,0,0-10.348,5.54A17.24,17.24,0,0,1,2.06,1.112a6.081,6.081,0,0,0,1.88,8.11,6.026,6.026,0,0,1-2.75-.76c0,.026,0,.05,0,.078A6.076,6.076,0,0,0,6.06,14.494a6.062,6.062,0,0,1-2.742.1A6.079,6.079,0,0,0,8.99,18.817a12.179,12.179,0,0,1-7.542,2.6A12.327,12.327,0,0,1,0,21.334a17.184,17.184,0,0,0,9.308,2.729" fill="#464646"/>
</svg>
