<svg id="youtube-icon" xmlns="http://www.w3.org/2000/svg" width="34.262" height="24.063" viewBox="0 0 34.262 24.063">
  <path id="Path_23558" data-name="Path 23558" d="M35.985,29.04c-3.141-1.679-6.149-3.222-9.224-4.834v9.64C30,32.087,33.407,30.476,36,29.04Z" transform="translate(-13.162 -17.359)" fill="#111"/>
  <path id="Path_23559" data-name="Path 23559" d="M35.985,29.04c-3.141-1.679-9.224-4.834-9.224-4.834l8.11,5.451S33.393,30.476,35.985,29.04Z" transform="translate(-13.162 -17.359)" fill="#111"/>
  <path id="Path_23560" data-name="Path 23560" d="M19.558,37.467c-6.525-.12-8.754-.228-10.123-.51a4.45,4.45,0,0,1-2.323-1.208,4.889,4.889,0,0,1-1.1-2.122,13.877,13.877,0,0,1-.47-3.115,73.985,73.985,0,0,1,0-10.1c.21-1.865.311-4.079,1.7-5.371A4.571,4.571,0,0,1,9.528,13.89a126.047,126.047,0,0,1,12.983-.456A126.278,126.278,0,0,1,35.5,13.89a4.466,4.466,0,0,1,2.672,1.584c1.271,2,1.294,4.486,1.423,6.432.053.927.053,6.189,0,7.116-.2,3.074-.362,4.162-.819,5.289a3.9,3.9,0,0,1-.94,1.5,4.5,4.5,0,0,1-2.39,1.222c-5.647.425-10.441.517-15.883.43ZM28.2,25.115c-3.141-1.679-6.149-3.235-9.224-4.847v9.64c3.235-1.759,6.646-3.37,9.237-4.807l-.013.013Z" transform="translate(-5.368 -13.434)" fill="#464646"/>
</svg>
