<svg width="1440" height="340" viewBox="0 0 1440 340" fill="none" xmlns="http://www.w3.org/2000/svg">
<g clip-path="url(#clip0)">
<mask id="mask0" style="mask-type:alpha" maskUnits="userSpaceOnUse" x="0" y="0" width="1440" height="476">
<rect width="1440" height="476" fill="#00788C"/>
</mask>
<g mask="url(#mask0)">
<rect width="1440" height="340" fill="#00788C"/>
<path fill-rule="evenodd" clip-rule="evenodd" d="M324.569 -284.352L-10.7154 48.7139L-346 -284.352V430.352H-198.012V69.5305L-10.7154 254.567L174.269 69.5305V430.352H324.569V-284.352ZM3609.97 11.7061H3519.79V-136.323H3609.97C3649.28 -138.636 3686.28 -108.568 3688.59 -69.2474V-62.3085C3688.59 -20.6753 3656.22 11.7061 3614.6 11.7061H3609.97ZM3702.47 134.293C3788.02 104.224 3845.83 23.2709 3843.52 -66.9344C3843.52 -168.705 3764.9 -282.04 3596.1 -282.04H3376.43V432.665H3526.73V148.171H3533.67L3748.71 430.352H3929.07L3702.47 134.293ZM2890.85 -191.834V428.039H3237.69V286.949H3027.27V182.866H3186.82V53.3399H3027.27V-50.7433H3237.69V-191.834H2890.85ZM2335.89 -48.4309V-189.521H2752.11V-48.4309H2615.68V430.352H2470.01V-48.4309H2335.89ZM2016.79 430.352C1935.86 432.665 1859.56 400.284 1804.06 342.46L1878.06 233.751C1912.74 270.758 1961.3 291.575 2012.17 293.888C2058.42 293.888 2072.29 270.758 2072.29 252.254C2072.29 233.751 2058.42 215.247 2007.54 196.743L1963.61 180.553C1882.68 148.171 1831.81 90.3473 1831.81 2.45483C1831.81 -103.941 1915.05 -184.895 2030.67 -184.895C2093.1 -187.208 2153.22 -166.391 2201.78 -127.071L2132.41 -13.7358C2104.66 -32.2395 2069.98 -43.8043 2035.29 -46.1173C1993.67 -46.1173 1975.17 -27.6136 1975.17 -6.797C1975.17 20.9585 1998.3 32.5233 2042.23 51.027L2081.54 67.2177C2164.78 99.5991 2217.96 166.675 2217.96 245.315C2220.28 349.399 2137.03 430.352 2016.79 430.352ZM1325.41 430.352H1179.74V-189.521L1519.65 120.415V-189.521H1665.32V430.352L1325.41 134.293V430.352ZM1041 120.416C1041 292.866 901.24 432.665 728.838 432.665C556.436 432.665 416.677 292.866 416.677 120.416C416.677 -52.0349 556.436 -191.834 728.838 -191.834C901.24 -191.834 1041 -52.0349 1041 120.416ZM892.179 120.413C892.179 210.649 819.049 283.8 728.838 283.8C638.628 283.8 565.498 210.649 565.498 120.413C565.498 30.1776 638.628 -42.9729 728.838 -42.9729C819.049 -42.9729 892.179 30.1776 892.179 120.413Z" fill="#00B6B4"/>
</g>
</g>
<defs>
<clipPath id="clip0">
<rect width="1440" height="340" fill="white"/>
</clipPath>
</defs>
</svg>
